<svg xmlns="http://www.w3.org/2000/svg" viewBox="0 0 512 512"><path d="M223.799 205.189a22.953 22.953 0 1 0 22.952 22.953 22.98 22.98 0 0 0-22.952-22.953zm0 32.905a9.953 9.953 0 1 1 9.952-9.952 9.964 9.964 0 0 1-9.952 9.952zM130.83 205.189a22.953 22.953 0 1 0 22.952 22.953 22.978 22.978 0 0 0-22.953-22.953zm0 32.905a9.953 9.953 0 1 1 9.952-9.952 9.964 9.964 0 0 1-9.953 9.952zM316.768 251.094a22.953 22.953 0 1 0-22.953-22.952 22.978 22.978 0 0 0 22.953 22.952zm0-32.905a9.953 9.953 0 1 1-9.953 9.953 9.964 9.964 0 0 1 9.953-9.953zM223.799 282.892a22.953 22.953 0 1 0 22.952 22.953 22.98 22.98 0 0 0-22.952-22.953zm0 32.905a9.953 9.953 0 1 1 9.952-9.952 9.964 9.964 0 0 1-9.952 9.952zM130.83 282.892a22.953 22.953 0 1 0 22.952 22.953 22.979 22.979 0 0 0-22.953-22.953zm0 32.905a9.953 9.953 0 1 1 9.952-9.952 9.964 9.964 0 0 1-9.953 9.952z"/><path d="M402.688 266.84V103.622a25.966 25.966 0 0 0-25.937-25.937h-51.13V49.982h-13v27.704H134.476V49.982h-13v27.704H70.345a25.966 25.966 0 0 0-25.937 25.937v56.017a6.476 6.476 0 0 0 .501 2.503V359.99a25.965 25.965 0 0 0 25.937 25.937h198.013a100.916 100.916 0 1 0 133.829-119.088zM70.344 90.685h51.13v31.227h13V90.686h178.146v31.227h13V90.686h51.13a12.952 12.952 0 0 1 12.937 12.937v48.904H57.408v-48.904a12.952 12.952 0 0 1 12.937-12.937zm.5 282.24A12.952 12.952 0 0 1 57.91 359.99V166.14h331.779v96.702a100.911 100.911 0 0 0-123.225 110.084zm295.834 76.092a87.913 87.913 0 1 1 87.913-87.913 88.012 88.012 0 0 1-87.913 87.913z"/><path d="M421.287 330.9h-24.404v-24.402a6.5 6.5 0 0 0-6.5-6.5h-47.408a6.5 6.5 0 0 0-6.5 6.5V330.9H312.07a6.5 6.5 0 0 0-6.5 6.5v47.408a6.5 6.5 0 0 0 6.5 6.5h24.404v24.403a6.5 6.5 0 0 0 6.5 6.5h47.408a6.5 6.5 0 0 0 6.5-6.5V391.31h24.404a6.5 6.5 0 0 0 6.5-6.5v-47.408a6.5 6.5 0 0 0-6.5-6.5zm-6.5 47.41h-24.404a6.5 6.5 0 0 0-6.5 6.5v24.402h-34.408V384.81a6.5 6.5 0 0 0-6.5-6.5H318.57v-34.408h24.404a6.5 6.5 0 0 0 6.5-6.5v-24.403h34.408V337.4a6.5 6.5 0 0 0 6.5 6.5h24.404z"/></svg>